<svg width="24" height="24" viewBox="0 0 24 24" fill="none" xmlns="http://www.w3.org/2000/svg">
<path d="M20.47 8.99999C20.6677 8.99999 20.8611 8.94134 21.0255 8.83146C21.19 8.72158 21.3182 8.5654 21.3938 8.38267C21.4695 8.19995 21.4893 7.99888 21.4507 7.8049C21.4122 7.61092 21.3169 7.43274 21.1771 7.29288C21.0372 7.15303 20.859 7.05779 20.6651 7.0192C20.4711 6.98062 20.27 7.00042 20.0873 7.07611C19.9046 7.1518 19.7484 7.27997 19.6385 7.44442C19.5286 7.60887 19.47 7.80221 19.47 7.99999C19.47 8.26521 19.5753 8.51956 19.7629 8.7071C19.9504 8.89463 20.2047 8.99999 20.47 8.99999ZM17.47 8.99999C17.6677 8.99999 17.8611 8.94134 18.0255 8.83146C18.19 8.72158 18.3182 8.5654 18.3938 8.38267C18.4695 8.19995 18.4893 7.99888 18.4507 7.8049C18.4122 7.61092 18.3169 7.43274 18.1771 7.29288C18.0372 7.15303 17.859 7.05779 17.6651 7.0192C17.4711 6.98062 17.27 7.00042 17.0873 7.07611C16.9046 7.1518 16.7484 7.27997 16.6385 7.44442C16.5286 7.60887 16.47 7.80221 16.47 7.99999C16.47 8.26521 16.5753 8.51956 16.7629 8.7071C16.9504 8.89463 17.2047 8.99999 17.47 8.99999ZM14.47 8.99999C14.6677 8.99999 14.8611 8.94134 15.0255 8.83146C15.19 8.72158 15.3182 8.5654 15.3938 8.38267C15.4695 8.19995 15.4893 7.99888 15.4507 7.8049C15.4122 7.61092 15.3169 7.43274 15.1771 7.29288C15.0372 7.15303 14.859 7.05779 14.6651 7.0192C14.4711 6.98062 14.27 7.00042 14.0873 7.07611C13.9046 7.1518 13.7484 7.27997 13.6385 7.44442C13.5286 7.60887 13.47 7.80221 13.47 7.99999C13.47 8.13131 13.4958 8.26135 13.5461 8.38267C13.5963 8.504 13.67 8.61424 13.7629 8.7071C13.8557 8.79996 13.966 8.87361 14.0873 8.92387C14.2086 8.97412 14.3386 8.99999 14.47 8.99999ZM18.91 13C18.69 13 18.46 12.93 18.24 12.88C17.7944 12.7818 17.3566 12.6515 16.93 12.49C16.4661 12.3212 15.9561 12.33 15.4983 12.5146C15.0404 12.6992 14.667 13.0466 14.45 13.49L14.23 13.94C13.2545 13.3958 12.3564 12.7231 11.56 11.94C10.7806 11.1439 10.1083 10.2497 9.55996 9.27999L9.99996 8.99999C10.4433 8.78291 10.7907 8.40952 10.9754 7.95168C11.16 7.49384 11.1687 6.9839 11 6.51999C10.8412 6.09241 10.7109 5.65479 10.61 5.20999C10.56 4.97999 10.52 4.75999 10.49 4.52999C10.3685 3.82561 9.99959 3.18773 9.44958 2.73123C8.89958 2.27473 8.20466 2.0296 7.48996 2.03999H4.48996C4.06721 2.03944 3.64911 2.12824 3.26308 2.30057C2.87705 2.47291 2.5318 2.72489 2.24996 3.03999C1.96365 3.36249 1.75024 3.74292 1.62426 4.15536C1.49828 4.5678 1.46271 5.00256 1.51996 5.42999C2.04668 9.61703 3.95234 13.5096 6.93636 16.4936C9.92038 19.4776 13.8129 21.3833 18 21.91C18.1298 21.9199 18.2602 21.9199 18.39 21.91C19.1856 21.91 19.9487 21.5939 20.5113 21.0313C21.0739 20.4687 21.39 19.7056 21.39 18.91V15.91C21.3796 15.2122 21.1263 14.5399 20.6736 14.0087C20.2209 13.4776 19.5973 13.1209 18.91 13ZM19.4 19C19.4016 19.1449 19.3717 19.2885 19.3124 19.4208C19.253 19.553 19.1656 19.6708 19.0562 19.7659C18.9468 19.861 18.8181 19.9312 18.6788 19.9717C18.5396 20.0121 18.3933 20.0217 18.25 20C14.5161 19.5128 11.0471 17.8081 8.37996 15.15C5.71496 12.4648 4.01321 8.97343 3.53996 5.21999C3.51824 5.07332 3.5294 4.92366 3.57264 4.78184C3.61588 4.64002 3.69011 4.50959 3.78996 4.39999C3.88256 4.29458 3.99629 4.20983 4.12379 4.15125C4.25128 4.09267 4.38967 4.06158 4.52996 4.05999H7.52996C7.76251 4.05482 7.98959 4.13087 8.17211 4.27506C8.35463 4.41925 8.48117 4.62256 8.52996 4.84999C8.56996 5.12332 8.61996 5.39332 8.67996 5.65999C8.79548 6.18713 8.94922 6.70517 9.13996 7.20999L7.73996 7.85999C7.62026 7.91491 7.51259 7.99294 7.42312 8.08959C7.33366 8.18623 7.26416 8.2996 7.21864 8.42318C7.17311 8.54677 7.15244 8.67812 7.15781 8.80971C7.16319 8.9413 7.1945 9.07054 7.24996 9.18999C8.68916 12.2727 11.1672 14.7508 14.25 16.19C14.4934 16.29 14.7665 16.29 15.01 16.19C15.2581 16.0976 15.4595 15.9106 15.57 15.67L16.2 14.27C16.7169 14.4549 17.2446 14.6085 17.78 14.73C18.04 14.79 18.32 14.84 18.59 14.88C18.8155 14.9308 19.0166 15.0582 19.1588 15.2405C19.301 15.4229 19.3756 15.6488 19.37 15.88L19.4 19Z" fill="black"/>
</svg>
