<svg width="23" height="22" viewBox="0 0 23 22" fill="none" xmlns="http://www.w3.org/2000/svg">
<path d="M16.2484 6.84088C15.3904 6.84053 14.5457 7.04352 13.7898 7.4317C13.7209 7.25792 13.5982 7.10833 13.4383 7.0028C13.2783 6.89727 13.0885 6.84079 12.8942 6.84088H9.06087C8.935 6.84081 8.81035 6.86447 8.69405 6.91052C8.57775 6.95656 8.47207 7.02408 8.38307 7.10921C8.29407 7.19435 8.22348 7.29543 8.17534 7.40667C8.12721 7.51792 8.10247 7.63715 8.10254 7.75755V18.7575C8.10247 18.8779 8.12721 18.9972 8.17534 19.1084C8.22348 19.2197 8.29406 19.3207 8.38307 19.4059C8.47207 19.491 8.57775 19.5585 8.69405 19.6046C8.81035 19.6506 8.935 19.6743 9.06087 19.6742H12.8942C13.0201 19.6743 13.1447 19.6506 13.261 19.6046C13.3773 19.5585 13.483 19.491 13.572 19.4059C13.661 19.3207 13.7316 19.2197 13.7797 19.1084C13.8279 18.9972 13.8526 18.8779 13.8525 18.7575V13.7159C13.8525 13.4728 13.9535 13.2396 14.1332 13.0677C14.313 12.8958 14.5567 12.7992 14.8109 12.7992C15.065 12.7992 15.3088 12.8958 15.4885 13.0677C15.6682 13.2396 15.7692 13.4728 15.7692 13.7159V18.7575C15.7691 18.8779 15.7939 18.9972 15.842 19.1084C15.8901 19.2197 15.9607 19.3207 16.0497 19.4059C16.1387 19.491 16.2444 19.5585 16.3607 19.6046C16.477 19.6506 16.6017 19.6743 16.7275 19.6742H20.5609C20.6867 19.6743 20.8114 19.6506 20.9277 19.6046C21.044 19.5585 21.1497 19.491 21.2387 19.4059C21.3277 19.3207 21.3983 19.2197 21.4464 19.1084C21.4945 18.9972 21.5193 18.8779 21.5192 18.7575V11.8825C21.5175 10.5459 20.9616 9.26452 19.9735 8.31938C18.9854 7.37425 17.6458 6.84254 16.2484 6.84088V6.84088ZM19.6025 17.8409H17.6859V13.7159C17.6859 12.9865 17.383 12.2871 16.8438 11.7713C16.3046 11.2556 15.5734 10.9659 14.8109 10.9659C14.0484 10.9659 13.3171 11.2556 12.7779 11.7713C12.2388 12.2871 11.9359 12.9865 11.9359 13.7159V17.8409H10.0192V8.67421H11.9359V9.31875C11.936 9.50868 11.9978 9.6939 12.1126 9.84881C12.2275 10.0037 12.3899 10.1207 12.5772 10.1836C12.7646 10.2465 12.9677 10.2522 13.1586 10.1999C13.3495 10.1476 13.5187 10.0399 13.6429 9.89166C14.073 9.3692 14.6629 8.98823 15.3303 8.80197C15.9977 8.6157 16.7092 8.63344 17.3655 8.85269C18.0219 9.07195 18.5902 9.48178 18.9913 10.025C19.3923 10.5682 19.606 11.2176 19.6025 11.8825V17.8409ZM6.18587 6.84088H2.35254C2.22667 6.84081 2.10202 6.86447 1.98572 6.91052C1.86942 6.95656 1.76374 7.02408 1.67474 7.10921C1.58573 7.19435 1.51515 7.29543 1.46701 7.40667C1.41888 7.51792 1.39414 7.63715 1.39421 7.75755V18.7575C1.39414 18.8779 1.41887 18.9972 1.46701 19.1084C1.51514 19.2197 1.58573 19.3207 1.67473 19.4059C1.76374 19.491 1.86941 19.5585 1.98572 19.6046C2.10202 19.6506 2.22667 19.6743 2.35254 19.6742H6.18587C6.31175 19.6743 6.4364 19.6506 6.5527 19.6046C6.669 19.5585 6.77468 19.491 6.86368 19.4059C6.95269 19.3207 7.02327 19.2197 7.07141 19.1084C7.11954 18.9972 7.14428 18.8779 7.14421 18.7575V7.75755C7.14428 7.63715 7.11954 7.51792 7.07141 7.40667C7.02327 7.29543 6.95268 7.19435 6.86368 7.10921C6.77468 7.02408 6.669 6.95656 6.5527 6.91052C6.4364 6.86447 6.31175 6.84081 6.18587 6.84088V6.84088ZM5.22754 17.8409H3.31087V8.67421H5.22754V17.8409ZM4.28325 0.00529509C3.86384 -0.0187184 3.44372 0.0391175 3.04841 0.175286C2.65311 0.311454 2.29089 0.52311 1.98379 0.79738C1.67669 1.07165 1.43112 1.4028 1.26201 1.7707C1.09291 2.1386 1.00381 2.53556 1.00012 2.93743C0.996433 3.3393 1.07824 3.73769 1.24057 4.10837C1.4029 4.47905 1.64236 4.81428 1.94439 5.09366C2.24641 5.37304 2.60469 5.59074 2.99743 5.73352C3.39018 5.87631 3.80918 5.94118 4.22896 5.92421H4.2561C4.67661 5.9481 5.0978 5.88973 5.49393 5.75266C5.89007 5.61559 6.25282 5.4027 6.56003 5.12699C6.86724 4.85129 7.11245 4.51857 7.28068 4.14916C7.44892 3.77975 7.53664 3.3814 7.53848 2.97847C7.54033 2.57553 7.45627 2.17647 7.29143 1.80566C7.12659 1.43485 6.88444 1.10008 6.57977 0.821812C6.2751 0.543544 5.91431 0.327617 5.51945 0.187228C5.12459 0.0468379 4.70395 -0.0150672 4.28324 0.00529509H4.28325ZM4.25611 4.09088H4.22896C4.06323 4.11013 3.89512 4.09526 3.73589 4.04727C3.57666 3.99928 3.43 3.91928 3.30574 3.81264C3.18148 3.70599 3.0825 3.57516 3.01543 3.42893C2.94837 3.2827 2.91476 3.12444 2.91688 2.96476C2.91688 2.28084 3.45313 1.83862 4.28325 1.83862C4.45067 1.81727 4.62093 1.83049 4.78255 1.87738C4.94418 1.92427 5.09343 2.00375 5.22024 2.11046C5.34706 2.21717 5.44849 2.34863 5.51771 2.496C5.58694 2.64336 5.62234 2.80321 5.62154 2.96476C5.62154 3.64868 5.08529 4.09088 4.25611 4.09088Z" fill="black"/>
</svg>
