<svg width="24" height="24" viewBox="0 0 24 24" fill="none" xmlns="http://www.w3.org/2000/svg">
<path d="M18 4.48C16.4087 2.8887 14.2504 1.99472 12 1.99472C9.74955 1.99472 7.59129 2.8887 5.99999 4.48C4.40869 6.0713 3.51471 8.22957 3.51471 10.48C3.51471 12.7304 4.40869 14.8887 5.99999 16.48L11.27 21.76C11.363 21.8537 11.4736 21.9281 11.5954 21.9789C11.7173 22.0297 11.848 22.0558 11.98 22.0558C12.112 22.0558 12.2427 22.0297 12.3646 21.9789C12.4864 21.9281 12.597 21.8537 12.69 21.76L18 16.43C19.5846 14.8453 20.4749 12.6961 20.4749 10.455C20.4749 8.21395 19.5846 6.06468 18 4.48ZM16.57 15L12 19.59L7.42999 15C6.52713 14.0963 5.91247 12.9452 5.66369 11.6923C5.4149 10.4393 5.54318 9.14075 6.03229 7.96068C6.52141 6.78062 7.34941 5.77205 8.41162 5.06248C9.47383 4.35291 10.7226 3.97418 12 3.97418C13.2774 3.97418 14.5261 4.35291 15.5884 5.06248C16.6506 5.77205 17.4786 6.78062 17.9677 7.96068C18.4568 9.14075 18.5851 10.4393 18.3363 11.6923C18.0875 12.9452 17.4728 14.0963 16.57 15ZM8.99999 7.41C8.19271 8.21977 7.73939 9.31657 7.73939 10.46C7.73939 11.6034 8.19271 12.7002 8.99999 13.51C9.59975 14.1108 10.3636 14.5211 11.1956 14.6894C12.0277 14.8577 12.8909 14.7766 13.6771 14.4562C14.4632 14.1357 15.1372 13.5903 15.6145 12.8883C16.0918 12.1862 16.3511 11.3589 16.36 10.51C16.3645 9.94321 16.2553 9.38126 16.0389 8.85739C15.8225 8.33352 15.5032 7.85836 15.1 7.46C14.7037 7.05458 14.2311 6.73154 13.7094 6.50947C13.1878 6.2874 12.6273 6.17068 12.0604 6.16603C11.4935 6.16138 10.9312 6.2689 10.406 6.48239C9.88073 6.69588 9.40291 7.01113 8.99999 7.41ZM13.69 12.09C13.311 12.4747 12.8102 12.7159 12.2731 12.7723C11.736 12.8286 11.1961 12.6966 10.7455 12.3989C10.2949 12.1012 9.96179 11.6562 9.803 11.1401C9.64421 10.6239 9.66964 10.0686 9.87495 9.56916C10.0803 9.06967 10.4527 8.65702 10.9286 8.40174C11.4045 8.14646 11.9542 8.06441 12.4839 8.16962C13.0136 8.27483 13.4903 8.56076 13.8325 8.97853C14.1747 9.39631 14.3612 9.91997 14.36 10.46C14.3454 11.0773 14.0865 11.6635 13.64 12.09H13.69Z" fill="black"/>
</svg>
