<svg width="20" height="20" viewBox="0 0 20 20" fill="none" xmlns="http://www.w3.org/2000/svg">
<path d="M11.6667 13.3333C11.5019 13.3333 11.3408 13.2844 11.2038 13.1928C11.0668 13.1012 10.96 12.9711 10.8969 12.8189C10.8339 12.6666 10.8174 12.4991 10.8495 12.3375C10.8816 12.1758 10.961 12.0274 11.0775 11.9108L16.9108 6.07748C17.0676 5.92356 17.2788 5.83776 17.4984 5.83875C17.7181 5.83975 17.9285 5.92746 18.0839 6.0828C18.2392 6.23813 18.3269 6.44853 18.3279 6.66821C18.3289 6.88789 18.2431 7.09908 18.0892 7.25582L12.2558 13.0891C12.1786 13.1667 12.0867 13.2281 11.9856 13.27C11.8845 13.3119 11.7761 13.3334 11.6667 13.3333ZM2.5 14.1666C2.3352 14.1666 2.17412 14.1177 2.03711 14.0262C1.90011 13.9346 1.79332 13.8044 1.73026 13.6522C1.66721 13.4999 1.6507 13.3324 1.68284 13.1708C1.71498 13.0092 1.79432 12.8607 1.91083 12.7442L6.91083 7.74415C7.06757 7.59022 7.27875 7.50443 7.49843 7.50542C7.71811 7.50642 7.92851 7.59412 8.08385 7.74946C8.23919 7.9048 8.3269 8.1152 8.32789 8.33488C8.32889 8.55456 8.24309 8.76574 8.08916 8.92248L3.08916 13.9225C3.01189 14 2.92006 14.0615 2.81895 14.1034C2.71784 14.1453 2.60944 14.1668 2.5 14.1666Z" fill="#2A9D8F"/>
<path d="M11.6667 13.3333C11.5572 13.3335 11.4488 13.312 11.3477 13.2701C11.2466 13.2281 11.1548 13.1667 11.0775 13.0892L6.91083 8.9225C6.7569 8.76576 6.6711 8.55458 6.6721 8.3349C6.67309 8.11522 6.7608 7.90482 6.91614 7.74948C7.07148 7.59414 7.28188 7.50644 7.50156 7.50544C7.72124 7.50445 7.93242 7.59025 8.08916 7.74417L12.2558 11.9108C12.3723 12.0274 12.4517 12.1759 12.4838 12.3375C12.516 12.4991 12.4995 12.6666 12.4364 12.8189C12.3733 12.9711 12.2666 13.1013 12.1295 13.1928C11.9925 13.2844 11.8315 13.3333 11.6667 13.3333Z" fill="#2A9D8F"/>
</svg>
