<svg width="50" height="37" viewBox="0 0 50 37" fill="none" xmlns="http://www.w3.org/2000/svg">
<path d="M13.4907 4.37892C13.8915 4.37901 14.2832 4.49792 14.6165 4.72063C14.9497 4.94334 15.2094 5.25985 15.3628 5.63014C15.5161 6.00043 15.5563 6.40788 15.4781 6.80098C15.3999 7.19407 15.207 7.55517 14.9236 7.83862L4.89276 17.8706L14.9237 27.9025C15.3037 28.2826 15.5172 28.798 15.5172 29.3355C15.5172 29.873 15.3037 30.3884 14.9237 30.7685C14.5436 31.1486 14.0282 31.3621 13.4907 31.3621C12.9532 31.3621 12.4377 31.1485 12.0577 30.7685L0.593776 19.3035C0.405533 19.1154 0.256205 18.892 0.154323 18.6461C0.0524406 18.4002 1.90735e-06 18.1367 1.90735e-06 17.8705C1.90735e-06 17.6044 0.0524406 17.3408 0.154323 17.095C0.256205 16.8491 0.405533 16.6257 0.593776 16.4376L12.0577 4.97271C12.2456 4.78421 12.469 4.63471 12.7149 4.53281C12.9608 4.4309 13.2245 4.37861 13.4907 4.37892Z" fill="#2A9D8F"/>
<path d="M36.5093 31.362C36.1085 31.362 35.7168 31.243 35.3835 31.0203C35.0503 30.7976 34.7906 30.4811 34.6372 30.1108C34.4839 29.7405 34.4437 29.3331 34.5219 28.94C34.6001 28.5469 34.793 28.1858 35.0764 27.9023L45.1072 17.8704L35.0763 7.83845C34.6963 7.45839 34.4828 6.94293 34.4828 6.40545C34.4828 5.86798 34.6963 5.35252 35.0763 4.97247C35.4564 4.59241 35.9718 4.3789 36.5093 4.37891C37.0468 4.37891 37.5623 4.59242 37.9423 4.97248L49.4062 16.4374C49.5945 16.6256 49.7438 16.849 49.8457 17.0949C49.9476 17.3407 50 17.6043 50 17.8704C50 18.1366 49.9476 18.4001 49.8457 18.646C49.7438 18.8919 49.5945 19.1153 49.4062 19.3034L37.9423 30.7683C37.7544 30.9568 37.531 31.1063 37.2851 31.2082C37.0392 31.3101 36.7755 31.3624 36.5093 31.362Z" fill="#2A9D8F"/>
<rect x="29.5121" width="4.31035" height="37.3566" rx="2.15517" transform="rotate(20 29.5121 0)" fill="#2A9D8F"/>
</svg>
