<svg width="50" height="50" viewBox="0 0 50 50" fill="none" xmlns="http://www.w3.org/2000/svg">
<path d="M5.20833 22.0001L23.9583 32.8334C24.275 33.0162 24.6343 33.1125 25 33.1125C25.3657 33.1125 25.725 33.0162 26.0417 32.8334L44.7917 22.0001C45.1074 21.8169 45.3694 21.5541 45.5516 21.2378C45.7338 20.9215 45.8296 20.563 45.8296 20.198C45.8296 19.833 45.7338 19.4744 45.5516 19.1582C45.3694 18.8419 45.1074 18.579 44.7917 18.3959L26.0417 7.56256C25.725 7.37971 25.3657 7.28345 25 7.28345C24.6343 7.28345 24.275 7.37971 23.9583 7.56256L5.20833 18.3959C4.89263 18.579 4.63057 18.8419 4.44841 19.1582C4.26624 19.4744 4.17036 19.833 4.17036 20.198C4.17036 20.563 4.26624 20.9215 4.44841 21.2378C4.63057 21.5541 4.89263 21.8169 5.20833 22.0001ZM25 11.7709L39.5833 20.1042L25 28.5417L10.4167 20.1876L25 11.7709ZM42.7083 28.0001L25 38.2292L7.29167 28.0001C7.05513 27.8615 6.79356 27.7709 6.52196 27.7336C6.25035 27.6963 5.97405 27.7129 5.7089 27.7826C5.44374 27.8523 5.19494 27.9736 4.97677 28.1396C4.7586 28.3056 4.57534 28.5131 4.4375 28.7501C4.29975 28.9878 4.21041 29.2505 4.17461 29.523C4.13881 29.7954 4.15726 30.0723 4.22891 30.3376C4.30056 30.6029 4.42399 30.8514 4.59208 31.0687C4.76017 31.2861 4.96961 31.4681 5.20833 31.6042L23.9583 42.4376C24.275 42.6204 24.6343 42.7167 25 42.7167C25.3657 42.7167 25.725 42.6204 26.0417 42.4376L44.7917 31.6042C45.0304 31.4681 45.2398 31.2861 45.4079 31.0687C45.576 30.8514 45.6994 30.6029 45.7711 30.3376C45.8427 30.0723 45.8612 29.7954 45.8254 29.523C45.7896 29.2505 45.7002 28.9878 45.5625 28.7501C45.4247 28.5131 45.2414 28.3056 45.0232 28.1396C44.8051 27.9736 44.5563 27.8523 44.2911 27.7826C44.0259 27.7129 43.7496 27.6963 43.478 27.7336C43.2064 27.7709 42.9449 27.8615 42.7083 28.0001Z" fill="#2A9D8F"/>
</svg>
