<svg width="50" height="50" viewBox="0 0 50 50" fill="none" xmlns="http://www.w3.org/2000/svg">
<path d="M24.9375 43.6875C35.2928 43.6875 43.6875 35.2928 43.6875 24.9375C43.6875 14.5822 35.2928 6.1875 24.9375 6.1875C14.5822 6.1875 6.1875 14.5822 6.1875 24.9375C6.1875 35.2928 14.5822 43.6875 24.9375 43.6875Z" fill="#0D413B"/>
<path d="M4.16666 25C4.13889 21.3262 5.10337 17.713 6.95833 14.5417C8.77549 11.3912 11.3912 8.77549 14.5417 6.95833C17.7129 5.10337 21.3262 4.13889 25 4.16666C28.6738 4.13887 32.2871 5.10335 35.4583 6.95833C38.6088 8.77547 41.2245 11.3912 43.0417 14.5417C44.8966 17.7129 45.8611 21.3262 45.8333 25C45.8611 28.6738 44.8966 32.2871 43.0417 35.4583C41.2245 38.6088 38.6088 41.2245 35.4583 43.0417C32.2871 44.8966 28.6738 45.8611 25 45.8333C21.3262 45.8611 17.7129 44.8966 14.5417 43.0417C11.3912 41.2245 8.77549 38.6088 6.95833 35.4583C5.10337 32.287 4.13889 28.6738 4.16666 25ZM7.62499 25C7.58714 29.2343 9.1497 33.3267 12 36.4583C13.5728 33.5611 15.7293 31.0216 18.3333 29C20.7665 26.8746 23.6631 25.3478 26.7917 24.5417C26.375 23.5694 25.9722 22.6944 25.5833 21.9167C20.5669 23.4803 15.3376 24.2534 10.0833 24.2083C8.99999 24.2083 8.19443 24.1944 7.66666 24.1667C7.66666 24.2778 7.65972 24.4167 7.64583 24.5833C7.63193 24.75 7.62499 24.8889 7.62499 25ZM8.16666 20.7083C8.77776 20.7639 9.68055 20.7917 10.875 20.7917C15.3458 20.8157 19.7959 20.184 24.0833 18.9167C22.2096 15.4843 19.8677 12.3291 17.125 9.54166C14.9289 10.6541 13.0021 12.2325 11.4792 14.1667C9.9327 16.0935 8.80458 18.3214 8.16666 20.7083ZM14.375 38.7083C19.1185 42.4563 25.4938 43.4078 31.125 41.2083C30.5795 36.5007 29.4888 31.8725 27.875 27.4167C24.9865 28.1492 22.3286 29.5963 20.1458 31.625C17.7798 33.5883 15.8196 35.9943 14.375 38.7083ZM20.75 8.20833C23.4204 11.0484 25.704 14.2287 27.5417 17.6667C30.8582 16.4154 33.7989 14.3354 36.0833 11.625C32.9888 9.00441 29.0548 7.58462 25 7.62499C23.5636 7.6277 22.134 7.82391 20.75 8.20833ZM29.0417 20.625C29.4583 21.5139 29.9306 22.6389 30.4583 24C32.5139 23.8056 34.75 23.7083 37.1667 23.7083C38.8889 23.7083 40.5972 23.75 42.2917 23.8333C42.092 20.1111 40.6548 16.5623 38.2083 13.75C35.8638 16.8618 32.6854 19.2455 29.0417 20.625ZM31.5 26.9167C32.9153 31.022 33.8794 35.2692 34.375 39.5833C36.5502 38.1862 38.3865 36.3215 39.75 34.125C41.1242 31.9453 41.9795 29.4791 42.25 26.9167C40.2222 26.7778 38.375 26.7083 36.7083 26.7083C35.1806 26.7083 33.4444 26.7778 31.5 26.9167Z" fill="#2A9D8F"/>
</svg>
