<svg width="50" height="50" viewBox="0 0 50 50" fill="none" xmlns="http://www.w3.org/2000/svg">
<path d="M41.9074 12.2944C41.7382 12.0699 41.5574 11.8543 41.3657 11.6486C41.5585 11.1349 41.7049 10.605 41.8032 10.0652C42.0935 8.09064 41.8415 6.07428 41.0741 4.2319C41.0741 4.2319 38.7407 3.50273 33.3865 7.1069C31.1135 6.47926 28.7655 6.16387 26.4074 6.1694C24.0425 6.16526 21.6879 6.48061 19.4074 7.1069C14.0532 3.46107 11.7199 4.2319 11.7199 4.2319C10.9618 6.0548 10.7098 8.04856 10.9907 10.0027C11.0896 10.565 11.2431 11.1162 11.449 11.6486C11.2615 11.8569 11.074 12.0861 10.9074 12.2944C9.35272 14.2444 8.52748 16.6759 8.57405 19.1694C8.56911 19.7608 8.59693 20.3519 8.65738 20.9402C9.32392 30.1694 15.4699 32.3152 21.3241 32.9819C20.4954 33.7524 19.9336 34.7666 19.7199 35.8777C19.5262 36.6187 19.4351 37.3828 19.449 38.1486V40.8768C17.1194 41.0839 14.7272 40.7449 13.9862 38.6657C13.1895 36.6762 11.8688 34.9396 10.1643 33.6405C10.0405 33.5728 9.92268 33.4945 9.81226 33.4065C9.66258 33.0129 9.39727 32.6737 9.05121 32.4337C8.70514 32.1936 8.29454 32.064 7.87338 32.0617H7.86336C7.31253 32.0615 6.78405 32.2796 6.39359 32.6681C6.00314 33.0566 5.78252 33.5841 5.78003 34.1349C5.7719 35.8276 7.46563 36.9201 8.1604 37.2924C8.97067 38.1088 9.62256 39.0684 10.083 40.1224C10.8419 42.2546 13.0605 45.4935 19.3868 45.0724C19.3889 45.1457 19.391 45.2148 19.3919 45.2779L19.401 45.8354C19.401 46.109 19.4548 46.3799 19.5595 46.6327C19.6642 46.8855 19.8176 47.1152 20.0111 47.3087C20.2046 47.5021 20.4342 47.6556 20.687 47.7603C20.9398 47.8649 21.2108 47.9188 21.4844 47.9187L21.4909 47.9174V47.9188H31.3057C31.5793 47.9188 31.8502 47.865 32.103 47.7603C32.3558 47.6556 32.5855 47.5022 32.779 47.3087C32.9725 47.1153 33.1259 46.8856 33.2306 46.6328C33.3353 46.38 33.3891 46.109 33.389 45.8354C33.389 45.8354 33.4043 39.2528 33.4043 38.1487C33.4182 37.3829 33.327 36.6189 33.1335 35.8778L33.1297 35.8651L33.1367 35.8778C33.1187 35.8049 33.0914 35.7455 33.0718 35.6748C32.8392 34.6428 32.3018 33.7045 31.5292 32.9819L31.5533 33.0254C31.5391 33.0125 31.5258 32.9943 31.5115 32.9819C37.3657 32.3152 43.4698 30.1277 44.1365 20.9402C44.197 20.3519 44.2248 19.7607 44.2198 19.1694C44.2567 16.6809 43.4407 14.2548 41.9074 12.2944Z" fill="#2A9D8F"/>
</svg>
