<svg width="20" height="20" viewBox="0 0 20 20" fill="none" xmlns="http://www.w3.org/2000/svg">
<g clip-path="url(#clip0_6_162)">
<path d="M14.7805 12.1849L12.7588 14.0438C11.7193 14.95 10.4979 15.6233 9.17675 16.0187L9.71315 18.5213C9.74056 18.6491 9.79763 18.7686 9.87976 18.8703C9.96188 18.972 10.0668 19.0529 10.1859 19.1066C10.3051 19.1602 10.4352 19.1851 10.5658 19.1792C10.6963 19.1733 10.8237 19.1368 10.9375 19.0727L14.1919 17.2371C14.65 16.9588 15.0077 16.5422 15.2137 16.0474C15.4196 15.5526 15.4631 15.0051 15.3377 14.484L14.7805 12.1849ZM6.05469 7.31322L7.79526 5.24665L5.62459 4.72292C5.09688 4.5389 4.5204 4.55207 4.00164 4.75998C3.48288 4.9679 3.05688 5.35652 2.80233 5.85407L0.968836 9.10398C0.904593 9.21782 0.868032 9.34517 0.862108 9.47575C0.856184 9.60633 0.881064 9.73647 0.934736 9.85565C0.988407 9.97483 1.06937 10.0797 1.17107 10.1618C1.27277 10.2439 1.39237 10.301 1.52019 10.3283L4.08081 10.8772C4.50532 9.57415 5.17534 8.36438 6.05469 7.31322V7.31322ZM13.9448 7.34687C14.192 7.34687 14.4337 7.27355 14.6392 7.1362C14.8448 6.99885 15.005 6.80363 15.0996 6.57522C15.1942 6.34681 15.219 6.09548 15.1708 5.853C15.1225 5.61053 15.0035 5.3878 14.8287 5.21298C14.6538 5.03817 14.4311 4.91912 14.1886 4.87088C13.9462 4.82265 13.6948 4.84741 13.4664 4.94202C13.238 5.03663 13.0428 5.19684 12.9054 5.4024C12.7681 5.60796 12.6948 5.84964 12.6948 6.09687C12.6949 6.42835 12.8266 6.74622 13.061 6.98062C13.2954 7.21501 13.6133 7.34674 13.9448 7.34687V7.34687Z" fill="#2A9D8F"/>
<path d="M18.8342 1.71833C18.7966 1.5756 18.7218 1.4454 18.6175 1.34103C18.5131 1.23666 18.3829 1.16186 18.2402 1.12426C16.5307 0.679895 14.7305 0.727544 13.0469 1.26171C11.3633 1.79588 9.86495 2.79484 8.72437 4.14347L6.05469 7.31323C4.72103 8.90392 3.87498 10.8458 3.61817 12.9057C3.6017 13.0323 3.61453 13.161 3.65566 13.2818C3.69678 13.4026 3.76512 13.5124 3.85539 13.6027L6.43881 16.1861C6.51615 16.2635 6.608 16.3249 6.70909 16.3668C6.81018 16.4087 6.91854 16.4303 7.02797 16.4303C7.05198 16.4303 7.07599 16.4291 7.10041 16.427C9.19188 16.2542 11.1739 15.4194 12.7587 14.0438L15.8113 11.237C17.1647 10.0994 18.1673 8.60091 18.7025 6.91583C19.2376 5.23075 19.2833 3.42836 18.8342 1.71833V1.71833ZM13.9448 7.34685C13.6975 7.34685 13.4559 7.27354 13.2503 7.13619C13.0447 6.99883 12.8845 6.80361 12.7899 6.5752C12.6953 6.34679 12.6705 6.09546 12.7188 5.85299C12.767 5.61051 12.8861 5.38778 13.0609 5.21296C13.2357 5.03815 13.4584 4.9191 13.7009 4.87087C13.9434 4.82264 14.1947 4.84739 14.4231 4.942C14.6515 5.03661 14.8467 5.19682 14.9841 5.40239C15.1214 5.60795 15.1948 5.84962 15.1948 6.09685C15.1946 6.42833 15.0629 6.74621 14.8285 6.9806C14.5941 7.21499 14.2762 7.34673 13.9448 7.34685V7.34685Z" fill="#1D534C"/>
</g>
<defs>
<clipPath id="clip0_6_162">
<rect width="20" height="20" fill="white"/>
</clipPath>
</defs>
</svg>
