<svg width="50" height="50" viewBox="0 0 50 50" fill="none" xmlns="http://www.w3.org/2000/svg">
<path d="M25.4621 12.4527C28.4233 12.4029 31.2848 13.5223 33.4261 15.5682L39.4015 9.59281C35.6306 6.05114 30.6351 4.10658 25.4621 4.16667C17.5851 4.16364 10.3805 8.60515 6.84467 15.644L13.8049 21.0417C15.4462 15.9747 20.1364 12.5189 25.4621 12.4527Z" fill="#19776C"/>
<path d="M6.84474 15.6439C3.89017 21.5314 3.89017 28.4685 6.84474 34.356L13.8049 28.9583C12.9338 26.3913 12.9338 23.6087 13.8049 21.0417L6.84474 15.6439Z" fill="#2A9D8F"/>
<path d="M32.5171 35.5588C26.6754 39.3084 18.9002 37.6124 15.1506 31.7707C14.587 30.8927 14.135 29.948 13.8049 28.9583L6.84473 34.356C10.3805 41.3949 17.5852 45.8364 25.4622 45.8333C30.5336 45.9709 35.4659 44.1653 39.25 40.7861L32.5171 35.5588Z" fill="#90DCD3"/>
<path d="M45.0834 21.2121H25.4622V29.2708H36.6742C36.2055 31.8466 34.7036 34.1185 32.5171 35.5587C32.5105 35.563 32.5036 35.5662 32.497 35.5704C32.5036 35.5662 32.5105 35.563 32.5171 35.5588L39.2499 40.7861L39.2501 40.786C43.3965 36.7924 45.6542 31.2272 45.4622 25.4735C45.4633 24.0445 45.3366 22.6185 45.0834 21.2121Z" fill="#1B7E72"/>
</svg>
