<svg width="50" height="50" viewBox="0 0 50 50" fill="none" xmlns="http://www.w3.org/2000/svg">
<path d="M25.0008 14.3023C22.885 14.3023 20.8167 14.9297 19.0575 16.1052C17.2983 17.2807 15.9271 18.9514 15.1174 20.9062C14.3078 22.8609 14.0959 25.0119 14.5087 27.087C14.9215 29.1622 15.9403 31.0683 17.4364 32.5644C18.9325 34.0605 20.8387 35.0794 22.9138 35.4921C24.989 35.9049 27.1399 35.6931 29.0947 34.8834C31.0494 34.0737 32.7202 32.7026 33.8956 30.9433C35.0711 29.1841 35.6985 27.1158 35.6985 25C35.6985 23.5952 35.4219 22.2041 34.8843 20.9062C34.3467 19.6082 33.5587 18.4289 32.5653 17.4355C31.5719 16.4422 30.3926 15.6542 29.0947 15.1166C27.7968 14.579 26.4057 14.3023 25.0008 14.3023ZM25.0008 31.9449C23.6272 31.9449 22.2845 31.5376 21.1424 30.7745C20.0003 30.0114 19.1101 28.9267 18.5845 27.6577C18.0588 26.3886 17.9213 24.9922 18.1893 23.645C18.4573 22.2978 19.1187 21.0603 20.09 20.0891C21.0613 19.1178 22.2988 18.4564 23.646 18.1884C24.9932 17.9204 26.3896 18.058 27.6586 18.5836C28.9277 19.1093 30.0123 19.9995 30.7754 21.1416C31.5386 22.2837 31.9459 23.6264 31.9458 25C31.946 25.9121 31.7664 26.8152 31.4174 27.6579C31.0684 28.5005 30.5569 29.2662 29.9119 29.9111C29.267 30.556 28.5014 31.0676 27.6587 31.4165C26.816 31.7655 25.9129 31.9451 25.0008 31.9449Z" fill="#2A9D8F"/>
<path d="M45.708 16.4108C45.6739 14.6826 45.3467 12.9727 44.7404 11.354C44.2163 9.9642 43.3964 8.70494 42.3373 7.66348C41.2974 6.60336 40.0385 5.78322 38.6485 5.26042C37.0299 4.65372 35.3199 4.32652 33.5917 4.2928C31.3703 4.19167 30.6602 4.16667 25.0025 4.16667C19.3449 4.16667 18.6342 4.19013 16.4116 4.2928C14.6834 4.32695 12.9735 4.65413 11.3548 5.26042C9.96462 5.7837 8.7052 6.60376 7.66429 7.66348C6.60359 8.70357 5.78342 9.96323 5.26138 11.354C4.6551 12.9727 4.32791 14.6826 4.29375 16.4108C4.19106 18.6321 4.16748 19.3423 4.16748 25C4.16748 30.6577 4.19106 31.3678 4.29371 33.5891C4.32787 35.3173 4.65507 37.0272 5.26138 38.646C5.78358 40.0367 6.60372 41.2963 7.66429 42.3365C8.70571 43.3956 9.96499 44.2155 11.3548 44.7394C12.9736 45.3455 14.6834 45.6727 16.4116 45.7071C18.6342 45.8081 19.3431 45.8333 25.0008 45.8333C30.6585 45.8333 31.3687 45.8098 33.59 45.7071C35.3182 45.6729 37.0281 45.3457 38.6468 44.7394C40.031 44.2043 41.288 43.3858 42.3374 42.3365C43.3867 41.2872 44.2052 40.0301 44.7404 38.646C45.3474 37.0274 45.6746 35.3174 45.708 33.5891C45.8091 31.3662 45.8325 30.6577 45.8325 25C45.8325 19.3423 45.8091 18.6321 45.708 16.4108ZM41.9601 33.4193C41.9441 34.7404 41.7017 36.049 41.2434 37.2882C40.8967 38.1866 40.3657 39.0025 39.6845 39.6833C39.0034 40.3641 38.1873 40.8948 37.2888 41.2411C36.0498 41.7004 34.7411 41.9429 33.4198 41.9578C31.2238 42.0587 30.5643 42.0789 25.0007 42.0789C19.4371 42.0789 18.7794 42.0587 16.584 41.9578C15.2628 41.9427 13.9541 41.7003 12.7151 41.2411C11.8102 40.9067 10.9915 40.3743 10.3188 39.6828C9.62625 39.0116 9.09365 38.1932 8.76044 37.2882C8.30111 36.0493 8.05868 34.7405 8.04377 33.4193C7.94273 31.2233 7.92263 30.5637 7.92263 25.0002C7.92263 19.4366 7.94448 18.7788 8.04377 16.581C8.06042 15.26 8.3028 13.9515 8.76044 12.7122C9.09484 11.8073 9.62726 10.9886 10.3188 10.3159C10.9903 9.62298 11.8094 9.09034 12.7151 8.75757C13.954 8.2983 15.2628 8.05587 16.584 8.0409C18.78 7.93988 19.4396 7.91976 25.0007 7.91976C30.5618 7.91976 31.222 7.94161 33.4198 8.0409C34.7409 8.05754 36.0494 8.29992 37.2888 8.75757C38.1876 9.10393 39.0039 9.63479 39.6851 10.3159C40.3662 10.9971 40.8971 11.8134 41.2434 12.7123C41.7027 13.9511 41.9451 15.2598 41.9601 16.581C42.0611 18.7789 42.0812 19.4367 42.0812 25.0002C42.0812 30.5636 42.0612 31.2214 41.9602 33.4193H41.9601Z" fill="#2A9D8F"/>
<path d="M36.1229 11.3792H36.122C35.4591 11.3793 34.8234 11.6427 34.3548 12.1115C33.8861 12.5803 33.6228 13.2161 33.6229 13.879C33.623 14.5418 33.8863 15.1776 34.3551 15.6463C34.8238 16.115 35.4596 16.3783 36.1225 16.3783C36.7853 16.3783 37.4211 16.115 37.8898 15.6463C38.3586 15.1776 38.622 14.5418 38.622 13.879C38.6221 13.2161 38.3588 12.5803 37.8902 12.1115C37.4215 11.6427 36.7858 11.3793 36.1229 11.3792Z" fill="#2A9D8F"/>
</svg>
