<svg width="50" height="50" viewBox="0 0 50 50" fill="none" xmlns="http://www.w3.org/2000/svg">
<path d="M39.5833 13.5417H36.9167L36.25 11.4583C35.8178 10.2359 35.0161 9.17814 33.956 8.43159C32.8959 7.68504 31.6299 7.28667 30.3333 7.29167H19.6667C18.3574 7.29412 17.0819 7.70768 16.0203 8.47398C14.9587 9.24027 14.1646 10.3206 13.75 11.5625L13.0833 13.6458H10.4167C8.75905 13.6458 7.16934 14.3043 5.99724 15.4764C4.82514 16.6485 4.16666 18.2382 4.16666 19.8958V36.5625C4.16666 38.2201 4.82514 39.8098 5.99724 40.9819C7.16934 42.154 8.75905 42.8125 10.4167 42.8125H39.5833C41.2409 42.8125 42.8306 42.154 44.0027 40.9819C45.1748 39.8098 45.8333 38.2201 45.8333 36.5625V19.8958C45.8472 19.0664 45.6957 18.2424 45.3878 17.4721C45.0799 16.7017 44.6217 16.0004 44.04 15.4089C43.4582 14.8175 42.7646 14.3478 41.9994 14.0272C41.2342 13.7066 40.4129 13.5416 39.5833 13.5417ZM41.6667 36.4583C41.6667 37.0109 41.4472 37.5408 41.0565 37.9315C40.6658 38.3222 40.1359 38.5417 39.5833 38.5417H10.4167C9.86412 38.5417 9.33422 38.3222 8.94352 37.9315C8.55282 37.5408 8.33332 37.0109 8.33332 36.4583V19.7917C8.33332 19.2391 8.55282 18.7092 8.94352 18.3185C9.33422 17.9278 9.86412 17.7083 10.4167 17.7083H14.5833C15.0376 17.7321 15.4872 17.6064 15.8634 17.3506C16.2396 17.0948 16.5217 16.7229 16.6667 16.2917L17.7917 12.875C17.9314 12.4612 18.1977 12.1018 18.5528 11.8476C18.908 11.5934 19.3341 11.4572 19.7708 11.4583H30.4375C30.8742 11.4572 31.3003 11.5934 31.6555 11.8476C32.0106 12.1018 32.2769 12.4612 32.4167 12.875L33.5417 16.2917C33.6753 16.6891 33.9258 17.0369 34.2603 17.2896C34.5949 17.5424 34.9979 17.6883 35.4167 17.7083H39.5833C40.1359 17.7083 40.6658 17.9278 41.0565 18.3185C41.4472 18.7092 41.6667 19.2391 41.6667 19.7917V36.4583ZM25 17.7083C23.3518 17.7083 21.7407 18.1971 20.3702 19.1128C18.9998 20.0284 17.9317 21.3299 17.301 22.8526C16.6703 24.3754 16.5052 26.0509 16.8268 27.6674C17.1483 29.2839 17.942 30.7688 19.1074 31.9342C20.2729 33.0997 21.7577 33.8933 23.3742 34.2149C24.9907 34.5364 26.6663 34.3714 28.189 33.7407C29.7117 33.1099 31.0132 32.0418 31.9289 30.6714C32.8446 29.301 33.3333 27.6898 33.3333 26.0417C33.3333 23.8315 32.4554 21.7119 30.8925 20.1491C29.3297 18.5863 27.2101 17.7083 25 17.7083ZM25 30.2083C24.1759 30.2083 23.3703 29.964 22.6851 29.5061C21.9999 29.0483 21.4659 28.3975 21.1505 27.6362C20.8351 26.8748 20.7526 26.037 20.9134 25.2288C21.0742 24.4205 21.471 23.6781 22.0537 23.0954C22.6364 22.5127 23.3789 22.1158 24.1871 21.9551C24.9954 21.7943 25.8331 21.8768 26.5945 22.1922C27.3559 22.5075 28.0066 23.0416 28.4644 23.7268C28.9223 24.412 29.1667 25.2176 29.1667 26.0417C29.1667 27.1467 28.7277 28.2065 27.9463 28.9879C27.1649 29.7694 26.1051 30.2083 25 30.2083Z" fill="#2A9D8F"/>
</svg>
